<mxfile host="app.diagrams.net" modified="2023-04-03T08:58:25.591Z" agent="Mozilla/5.0 (Windows NT 10.0; WOW64) AppleWebKit/537.36 (KHTML, like Gecko) Chrome/83.0.4103.97 Safari/537.36" version="21.1.1" etag="GPrx-pwI8U0j_sWyPB5O" type="github">
  <diagram name="第 1 页" id="-VgvAfA-zjmiE6CCC_Rd">
    <mxGraphModel>
      <root>
        <mxCell id="0" />
        <mxCell id="1" parent="0" />
      </root>
    </mxGraphModel>
  </diagram>
</mxfile>
